<?xml version="1.0" encoding="utf-8"?>
<!-- Generator: Adobe Illustrator 21.0.0, SVG Export Plug-In . SVG Version: 6.00 Build 0)  -->
<svg version="1.1" id="Layer_1" xmlns="http://www.w3.org/2000/svg" xmlns:xlink="http://www.w3.org/1999/xlink" x="0px" y="0px"
	 width="1400px" height="980px" viewBox="0 0 1400 980" enable-background="new 0 0 1400 980" xml:space="preserve">
<g>
	<g>
		<g>
			<g>
				<rect id="XMLID_4_" fill="#69539C" width="1400" height="980"/>
			</g>
		</g>
		<circle fill="#887DBA" cx="700" cy="490" r="350"/>
		<g>
			<g>
				<g>
					<path fill="#F59CB0" d="M890.7,90.1c9.9,0.3,19.2,7.9,21.3,17.6c1.3,5.9,0.4,12.8,4.2,17.5c3,3.7,8.7,4.9,12.9,2.7
						c-1,3.7-3.8,6.9-7.4,8.2c-0.5,2.2-0.2,4.6,0.9,6.7c-9.1-1.8-16.7-5.9-23.5-12.3c0.8,12,9.7,20.4,21.5,22.9
						c-3.6,3.5-3.8,7.8-2,12.5c0.5,1.2,1.1,2.4,1,3.7c-0.4,3-4.6,3.5-7.5,2.9c-6.1-1.4-11.8-4.5-16.2-8.9
						c4.8,10.9,9.5,21.4,14.3,32.2c-9.8-7.9-20.9-14.1-32.6-18.5c1.6-8.5,0.6-18.4-4.3-25.5c-2.3-3.4-5.2-6.3-7.5-9.6
						c-7.5-10.5-8.6-25.8-1.1-36.3C870.7,97.4,880.9,93.9,890.7,90.1z"/>
					<path fill="#855914" d="M890.2,93.9c1.7,0.7,2.6,2.7,2.4,4.6s-1.1,3.5-2.2,5c-1.1,1.5-2.2,3-2.8,4.8c-1,2.9-0.5,6,0.1,9
						c-0.9-2.6-1.8-5.3-3.6-7.5c-0.5-0.6-1.1-1.3-1.9-1.5c-1.2-0.4-2.6,0.1-3.5,1.1c-0.9,1-1.3,2.3-1.5,3.6c-0.4,2.5-0.2,5,0.7,7.4
						c0.9,2.7,3.3,5.3,6.1,4.7c-0.4,10.8-3.6,21.2-9.5,30.3c-4.8-5.5-11.1-9.5-16.4-14.6s-9.8-11.7-9.5-19c0.3-6.4,4.2-12,8-17.1
						c-2.2-3.7-0.9-8.5,1.4-12.1c5.7-8.9,16.6-12.6,26.5-16.3c9.9-3.7,20.5-9,24.1-18.9c0.6,4.4-0.8,9.1-3.8,12.5
						c2.5-0.6,4.4-2.5,6.8-3.6c4.3-1.9,9.8-0.5,13,3c3.2,3.5,4.4,8.6,3.4,13.3c-0.9,4.7-3.7,8.8-7.3,12c-0.4-3.8-2.4-7.5-5.5-9.8
						c3,6.4,1,14.7-4.6,19c-3.8-7.1-11.9-11.6-20-11.1c-0.5,0-1.2,0-1.4-0.5S890.6,93.5,890.2,93.9z"/>
					<path fill="#BD77B2" d="M869.1,240c-5.3,6.2-8.5,14-11.5,21.6c-5.6,13.9-11.2,27.8-16.8,41.6c-1.1,2.6-2.1,5.7-0.8,8.1
						c0.9,1.6,2.6,2.6,4.2,3.5c17.7,9.8,35.4,19.7,53.1,29.5c0.5-5.5,2-10.8,4.3-15.8c-15.2-5.4-29.3-13.7-41.3-24.5
						c11.1-10.4,21.2-24.3,28.5-37.7c1.1-2,2.2-4.3,1.5-6.5c-0.5-1.5-1.6-2.6-2.8-3.6C881.3,250.6,875.3,245.7,869.1,240z"/>
					<path fill="#AFB6DC" d="M853.5,263.4c-0.5,1.1-1.1,2.3-0.8,3.5c0.2,0.9,0.9,1.7,1.6,2.3c7.2,7,15.6,12.8,24.6,17.2
						c3.5-12.2,6.9-24.3,10.1-36.6c1.2-4.4,2.3-8.8,2.2-13.3c-0.3-11.9-7.3-26.5-17.3-13.8C865.2,233.9,859.7,250.6,853.5,263.4z"/>
					<path fill="#FFF5C9" d="M869.9,169.2c19.5,2.3,35.9,14.4,49.2,27.8c40.2,40.3,61.7,95.8,58.3,150.4
						c-11.2,9.4-23.2,16.1-37.8,19.9c-13.3-7.1-30.1-11.1-45.4-12.6c-8.9-0.9-20.3-2.2-22.7-10.2c-1-3.3,0-6.7,1.1-10
						c2.7-8,6.4-16,6.1-24.3c-0.2-6.8-3-13.3-4.4-20c-4.4-21.8,6.8-46-4-65.8c-10.4-4.1-21.6-11.1-30.7-17.2
						c-3.9-2.6-7.9-5.7-9.1-10.1c-1.3-4.6,0.9-9.5,3.8-13.5C842,172.9,855.8,167.6,869.9,169.2z"/>
					<path fill="#F59CB0" d="M964.6,322.8c-21.4-14.8-48.6-22.2-75.3-20.6c6.1,16,5.2,30.6,4.8,47.6c0,1.2-0.1,2.4,0.5,3.5
						c0.6,1.1,1.9,1.8,3.1,2.5c23.3,12.2,47.9,24.7,74.6,24.7C973.7,361.1,971.2,341.1,964.6,322.8z"/>
					<path fill="#FFF5C9" d="M796,514.2c1.6,5.8-1.6,11.7-4.4,17.1c-9.8,18.6-16,39.1-18.2,60c-0.5,4.9-0.4,10.6,3.5,13.5
						c3.2,2.4,7.8,1.9,11.5,0.2c9.9-4.5,15-15.4,18.3-25.7c3.3-10.3,5.7-21.4,12.8-29.6C831,536.6,812.8,509.6,796,514.2z"/>
					<path fill="#FFF5C9" d="M894.3,531c1.6,5.8-1.6,11.7-4.4,17.1c-9.8,18.6-16,39.1-18.2,60c-0.5,4.9-0.4,10.6,3.5,13.5
						c3.2,2.4,7.8,1.9,11.5,0.2c9.9-4.5,15-15.4,18.3-25.7c3.3-10.3,5.7-21.4,12.8-29.6C929.2,553.5,911,526.5,894.3,531z"/>
					<path d="M983.4,416.8c-3.4-16.3-6.2-32.7-6.7-49.2c-13.4-5.8-27.2-10.4-41.7-13.7c-10.9-2.4-22-4.1-33.2-5.1
						c-3.9-0.3-7.8-0.5-11.8-0.6c-10,16.8-9.4,39.2-11,59.4c-0.9,11.2-2.7,22.3-3.9,33.4c-2.5,23.7-2.3,47.5-2.1,71.3
						c0.2,19.5,0.3,38.9,0.5,58.4c-21.6-13.9-41.6-30.3-59.6-48.8c-2.3,6.5-4.1,15.8-6.4,22.3l35.8,38.7
						c7.1,7.7,14.4,15.5,23.7,20.4c9.3,4.9,21.1,6.3,30.1,0.9c12-7.2,14.9-22.9,16.3-36.8c9.7,10.9,21.5,21.5,35.9,22.3
						c15.7,0.9,30.1-10.7,36.8-24.9c6.8-14.2,7.3-30.5,6.6-46.2C991.3,484.8,984.6,450.7,983.4,416.8z M948.1,552.1
						c-10.6-6.3-21.2-12.6-31.7-18.9c0,0,0-0.1,0-0.1c11.3-30.3,9.6-63.8,12.9-96.3c5,0.3,10,0.8,15,1.2c0.1,1.7,0.2,3.3,0.5,4.9
						c1.4,9,3.7,17.9,5.2,26.8c2.6,17.7,1.2,35.9,2.2,53.7C951.1,533.1,949.7,542.6,948.1,552.1z"/>
					<path fill="#F59CB0" d="M874.4,87.1c-2.7-1-5.8-1-8.5,0c7.5-6.3,13.7-14.3,17.9-23.1c-1.8-0.7-3.5,0.9-4.7,2.3
						c-2.6,3-5.3,6-7.9,9c2.7-4.1,4.8-8.6,6.1-13.3c0.2-0.9,0.2-2.1-0.6-2.3c-0.4-0.1-0.9,0.2-1.2,0.4c-2.6,1.7-5.1,3.8-7.2,6.2
						c-0.2-0.9-0.4-1.8-0.6-2.7c-5.7,5.3-11.4,10.6-17.1,15.9c-2.2,2-4.3,4-6,6.4c-1.1,1.5-2.9,4.5-4.2,7.8
						c-1.3,1.2-2.6,2.4-3.9,3.5c-9.5,8.9-19.7,17.3-29,26.4c-11,10.8-19.2,25-28.1,37.6c20.1,15.4,46,21.8,65.6,37.8
						c1.9,1.5,3.8,3.2,6.2,3.5c2.3,0.3,4.6-0.7,6.5-2c5.8-3.8,9.7-12.3,5.2-17.6c-1.5-1.8-3.7-2.9-5.8-3.9
						c-16.2-7.8-32.3-15.5-48.5-23.3c11.6-16.5,23.1-33,34.7-49.4c4.8,0.4,12.2-2.4,14.7-4.4c2.4-1.9,4.1-4.6,6.1-7
						c2-2.4,4.6-4.5,7.7-4.7c1-0.1,2.1,0.1,3-0.3c0.9-0.4,1.5-1.7,0.9-2.4C875.1,87.4,874.7,87.2,874.4,87.1z"/>
				</g>
				<g>
					<path fill="#FFF197" d="M583.6,356.9c-19.7-1.1-39.4-2.2-59.1-3.3c-5.3-0.3-10.8-0.6-15.7,1.4c-6.6,2.7-10.7,9.1-14.4,15.1
						c-15.6,25.8-30.7,51.8-45.3,78.2c-1.6,2.9-3.3,5.9-5.9,8c-2.7,2.2-6.3,3.3-8.7,5.7c-4,3.9-3.9,10.4-1.6,15.4
						c3.7,8.1,13.8,13.8,22.4,10.6c-2.4,3.8,4.4,7.9,8.3,5.4s4.4-7.6,4.3-12.1c4.9-3.4,9.5-9.6,8.9-15.4
						c-0.7-5.8-4.7-11.1-10.3-13.4c15.2-25.5,30.6-50.8,45.8-76.3c24.6,2.2,48.6,5.6,73,9.5c5.5-8.2,1.9-19-1.8-28.1
						c-0.2-0.6-0.6-1.2-1.2-1.4C581.6,356,583.1,356.6,583.6,356.9z"/>
					<path fill="#BCAA61" d="M654,448.6c12.7,17.9,25.4,35.8,38.1,53.7c3.9,5.4,7.9,11,13.7,14.5c2.1,1.2,4.4,2.2,6.9,2
						c2.6-0.2,4.9-1.8,6.9-3.3c19-14.1,40.8-38,54.7-56.7c5.8,4.8,17.3,0.4,22.3-5.1c5-5.5,4.4-15-1.4-19.8
						c-2.7-2.2-6.4-3.9-7.1-7.2c-0.3-1.5,0.1-3.1,0-4.7c-0.2-4-4-7.6-8.2-7.6s-8.1,3.6-8.2,7.6c-6-3.8-12.8,1.8-14.1,8.6
						c-1.3,6.8,2,13.5,5.3,19.7c-13.2,13.2-31.1,31.7-44.3,44.8c-19-17-35.1-38.3-47.1-60.4c-5.7,4.7-11.9,8.8-18.5,12.2
						C652.8,448.1,653.3,449.6,654,448.6z"/>
					<path fill="#AFB6DC" d="M642.1,466.2c4.2,7.8,8.5,15.6,12.7,23.4c12-11.5,24.6-22.3,37.8-32.4c-16.1-15.5-22.1-38.1-25.6-59.7
						C646.4,418,626.8,437.9,642.1,466.2z"/>
					<g>
						<path d="M222.2,622.2c-0.7,4.5-0.4,9-0.6,13.5c-0.4,9.1-3.6,18.1-6.1,26.8c-2.5,8.9-5.1,17.9-7.2,26.9
							c-1,4.3-2.1,8.5-3.8,12.5c0,0.7,0,1.3,0.1,2c0,0-0.1,0-0.1,0.1c7.9,0.1,14.8-5.5,19.1-11.9c4.4-6.5,7.1-13.9,11.8-20.2
							c1.5-2,3.1-3.9,4.1-6.1c1.3-3,1.2-6.3,1.3-9.5c0.4-9,2.3-19,6.2-27.2C241,622.7,231.1,621.6,222.2,622.2z"/>
						<path fill="#FFED96" d="M222.7,621.5c-0.8,5.9-2.5,11.6-4.2,17.5c-2.8,9.5-4.8,19.4-7.1,29.1c-2,8.5-3.4,17.1-5.5,25.5
							c-1.1,4.3-2.6,9.3-2.1,13.8c5.4-0.3,10.6-3.2,14.3-7.1c4.4-4.6,7.1-10.4,9.7-16c-3.1-3.6-7.4-6.1-12.1-7.1
							c3.6-18.6,7.2-37.2,10.8-55.7C225.1,621.3,223.8,621.3,222.7,621.5z"/>
						<g>
							<path fill="#FFED96" d="M236,671.6c0.6-0.8,1.2-1.5,1.8-2.3l-0.4-0.4c-2.9-2.2-6-4.2-9.1-6.1c-0.9,0.3-1.2,1.4-0.8,2.3
								c0.4,0.8,1.1,1.4,1.9,1.9C231.6,668.5,233.8,670.1,236,671.6z"/>
							<path fill="#FFED96" d="M226.1,672.2c2.2,1.5,4.4,3.1,6.6,4.6c0.6-0.8,1.2-1.5,1.8-2.3l-0.4-0.4c-2.9-2.2-6-4.2-9.1-6.1
								c-0.9,0.3-1.2,1.4-0.8,2.3C224.6,671.2,225.4,671.7,226.1,672.2z"/>
						</g>
					</g>
					<path fill="#855914" d="M493.8,573.7c-2.3,2.6-4.6,5.2-6.9,7.9c-0.8-2.2-1.5-4.3-2.3-6.5c-22.4,23-47,44.1-73.4,62.9
						c-4.7,3.4-9.6,6.7-15.2,8.4c-7.4,2.3-15.4,1.4-23.1,0.5c-34.2-4.2-67.1-14.7-100.8-19.6c-1.3-0.4-17.1-7.7-18.4-8.1
						c-9.6,2.6-9.1-0.7-18.8,1.6c-3.9,14.1,6.9,35.6,3,49.7c9.3-5.4,4.7-5.1,14-10.5c38.4,15.2,77.2,29.6,116.2,43.4
						c7.3,2.6,14.9,5.1,22.6,4.7c8.5-0.5,16.3-4.5,23.7-8.4c39.4-20.8,78.9-41.6,118.3-62.4c2.7,0.9,2.8-6.1,5.5-5.2
						C532.3,608.2,514.7,587.7,493.8,573.7z"/>
					<path fill="#B07E09" d="M508.3,514.1c-15.6,14.6-27.1,34-28.6,54.8c-2.6,36,23.4,67.2,43.4,97.8
						c41.9,64.1,61.6,141.1,55.5,216.5c6.8,9.2,0.7,16.2,7.5,25.5c9.2-6.6,32-15.2,41.1-21.8c-5.2-2.9-10.3-5.9-15.5-8.8
						c5.4-49.7,11.5-99.8,16.8-149.4c-25.6-53.6-50.4-111.6-76-165.2C543,543.4,528.4,524.8,508.3,514.1z"/>
					<path fill="#F5FAF4" d="M643.8,467.9c13.3-22.1,24.4-46.1,26.8-71.5c0.9-9.4,1.9-14.6-1-23.7c-0.7-2-1.5-4.1-3.1-5.6
						c-2.2-2.1-5.4-2.9-8.5-3.2c-2.5-0.3-18.1-3.7-24.9-5.4c-5.3-1.3-66.9-8.8-66.4-4.2c1.6,18.2-1.2,36.8-8.1,53.9
						c9.5-2.6,19.1,0.2,28.8,3.1C553.1,449.8,507.3,504,474.2,543c8,16.9,23,27.5,37.9,39.3c14.9,11.8,42.1,13.5,58.7,22.9
						c7.2-25.1,17.6-49.4,30.9-72.2C614.8,510.7,630.5,490,643.8,467.9z"/>
					<path fill="#FFF197" d="M754.6,352.9c-1-0.8-1.8-1.8-2.6-2.9c-2-2.7-3.6-5.7-4.6-8.9c-0.7-2.1-1.2-4.4-0.8-6.5
						c2.9,4.8,7.3,8.8,12.5,11.2c0-0.7,0-1.4,0-2.1c0.3-0.5,0.6-0.9,1-1.4c4.3,1.2,6.5,1.1,10.5-0.7c-6.9-4.9-10.1-14.1-7.7-21.9
						c0.8-2.7,2.2-5.2,3.2-7.8c3.4-8.6,2.3-18.8-2.7-26.6c-4.5-7-12.1-11.9-20.3-14.3c-10.9-3-23.2-3.8-33,1.6
						c-10.7,5.9-16.4,19.2-13,30.6c2.4,8.2,9,15.8,7.5,24.3c-0.9,4.8-4.3,8.8-7.9,12.3c-10.2,10.1-24.3,27.4-38.9,27.2
						c0,0.3,0,0.5-0.1,0.8c-3,14.9-7,30.4-3,45.1c0.9,3.2,2.2,6.4,4.2,9.1c4.6-17.1,13.4-34,27.3-45.5c0.3-0.3,0.7-0.7,1-1
						c2.9-3.2,6-6.2,9.6-9c3.1-2.4,6.3-4.3,9.7-5.9c10.1-2.5,20.9-2.5,30.7,1c3.9,1.4,7.9,3.3,11.9,2.4c4.6-0.9,7.2-4.8,8.6-9.4
						C756.6,354.2,755.5,353.6,754.6,352.9z"/>
					<path fill="#F5BA3D" d="M785.3,278.1c1.3-5.9-1-13.7-7.3-14.8c0.4-4.2-2.3-8.6-6.4-10.3c0.9,6-5.1,11.4-11.4,12.3
						s-12.6-1.5-18.3-4.2c-5.7-2.7-11.4-5.9-17.7-6.6c-11.5-1.4-23.3,6.7-25.7,17.5c-12.7,2.6-20.5,17.8-14.9,29
						c1.4,2.9,3.7,5.8,3,8.9c-0.7,3.1-6.6,4.2-6.8,1c-2,7.4,4.9,15.8,12.9,15.7c-1.6,3.1,2.3,6.2,5.7,7.2c7.6,2.2,12.3,3,19.9,1
						c1.1-0.3,2.1-0.6,3.2-0.8c-2.1-2.4-4-5.1-4.7-8.1c-0.7-3.1,0.2-6.6,2.8-8.5s7-1.2,8.3,1.6c0.6,1.2,0.5,2.6,1,3.9
						c1.5,3.6,7.9,3.4,9.3-0.2c-3.9-0.6-5.4-5.6-3.9-9c1.5-3.5,5-5.7,8.2-7.8s6.6-4.6,7.8-8.1c1-3.1,0.2-6.4-0.9-9.5
						c3.1,5.9,12.6,7.2,19.8,5.8C777.3,292.5,783.6,285.7,785.3,278.1z"/>
					<g>
						<path d="M591.8,922.7c4.5-1.4,8.5-3.8,12.7-5.7c8.6-3.9,18.5-5.3,27.7-7.2c9.5-2,18.9-3.9,28.3-6.3c4.4-1.1,8.9-2.1,13.3-2.5
							c0.6-0.3,1.2-0.6,1.8-1c0.1,0,0.1,0,0.1,0c-3.5-6.8-11.9-10-19.9-10.8c-8-0.8-16.2,0.4-24.2-0.7c-2.5-0.3-5-0.9-7.6-0.7
							c-3.4,0.3-6.4,1.9-9.4,3.3c-8.5,3.8-18.7,6.8-28.1,7.3C583.5,906.4,587,915.4,591.8,922.7z"/>
						<path fill="#FFED96" d="M590.8,922.6c5.8-2.1,11.9-3.2,18.1-4.5c10.1-2,20.2-4.9,30.2-7.4c8.8-2.2,17.4-5,26.2-7.1
							c4.5-1.1,9.8-2.1,13.8-4.6c-2.8-4.4-7.8-7.5-13.1-8.8c-6.3-1.6-12.9-1.3-19.4-0.9c-1.9,4.2-2.2,9.1-1,13.5
							c-18.9,5.5-37.8,11-56.6,16.5C589.5,920.7,590.2,921.7,590.8,922.6z"/>
						<g>
							<path fill="#FFED96" d="M631.2,888.2c-1-0.2-2-0.3-3-0.5l-0.2,0.5c-0.7,3.5-1.2,7-1.4,10.6c0.7,0.6,1.9,0.3,2.5-0.4
								c0.6-0.7,0.8-1.6,0.9-2.5C630.3,893.4,630.7,890.8,631.2,888.2z"/>
							<path fill="#FFED96" d="M636.3,896.3c0.4-2.6,0.8-5.2,1.2-7.7c-1-0.2-2-0.3-3-0.5l-0.2,0.5c-0.7,3.5-1.2,7-1.4,10.6
								c0.7,0.6,1.9,0.3,2.5-0.4C636,898.1,636.1,897.2,636.3,896.3z"/>
						</g>
					</g>
					<path fill="#F26422" d="M750.4,297.6c1-3.1,0.2-6.4-0.9-9.5c0.6,1.1,1.4,2,2.4,2.8c-0.4-0.9-0.7-1.9-1.2-2.8
						c-2.5-4.7-8.7-8.5-13.4-5.7c4.4,3.9,3.4,11.9-1.9,14.6c-5,2.6-11.1,0.5-16.7-0.5c-5.6-1-13.1,0.6-14,6
						c-1.2-5.9,0.3-12.3,3.9-17.2c-3.2,0.5-5.9-2.7-6.1-5.8c-0.2-3.1,1.4-6,3-8.7c-2.5,0.6-4.6,0.4-6.4-0.1
						c-0.1,0.4-0.3,0.9-0.4,1.3c-12.7,2.6-20.5,17.8-14.9,29c1.4,2.9,3.7,5.8,3,8.9c-0.7,3.1-6.6,4.2-6.8,1
						c-2,7.4,4.9,15.8,12.9,15.7c-1.6,3.1,2.3,6.2,5.7,7.2c7.6,2.2,12.3,3,19.9,1c1.1-0.3,2.1-0.6,3.2-0.8c-2.1-2.4-4-5.1-4.7-8.1
						c-0.7-3.1,0.2-6.6,2.8-8.5c2.6-1.9,7-1.2,8.3,1.6c0.6,1.2,0.5,2.6,1,3.9c1.5,3.6,7.9,3.4,9.3-0.2c-3.9-0.6-5.4-5.6-3.9-9
						c1.5-3.5,5-5.7,8.2-7.8C745.9,303.7,749.2,301.2,750.4,297.6z"/>
					<path fill="#855914" d="M611.7,878.1c5.2-47.9,11-96.3,16.2-144.2c-12,6.1-26,8.6-39.5,6.6c-12.4-1.8-23.9-6.7-34.1-13.8
						c20,49.6,28.5,103.5,24.2,156.5c6.8,9.2,0.7,16.2,7.5,25.5c9.2-6.6,32-15.2,41.1-21.8C622,883.9,616.8,881,611.7,878.1z"/>
					<path fill="#BCAA61" d="M708.5,346.1c-0.5-0.3-5.9,8.6-9.6,18.8c2.4-1.7,5-3.1,7.6-4.4c9.1-2.3,18.6-2.4,27.6,0
						C725.1,356.7,716.7,351.4,708.5,346.1z"/>
				</g>
			</g>
		</g>
		<path fill="#FFFFFF" d="M0,0v980h1400V0H0z M1371.7,891.9c0,37.8-30.6,68.4-68.4,68.4H96.6c-37.8,0-68.4-30.6-68.4-68.4V88.1
			c0-37.8,30.6-68.4,68.4-68.4h1206.7c37.8,0,68.4,30.6,68.4,68.4V891.9z"/>
	</g>
</g>
</svg>
